<svg xmlns="http://www.w3.org/2000/svg" viewBox="0 0 146.874 71.934">
  <defs>
    <style>
      .cls-1 {
        fill: #fff;
        fill-rule: evenodd;
      }
    </style>
  </defs>
  <g id="itbam" transform="translate(0)">
    <path id="Tecnologia_e_Biotecnologia_do_Amazonas_1_" class="cls-1" d="M1.225,64.831V61.491H0v-.668H3.229v.668H2v3.341Zm2.784,0V60.823H7.015v.668H4.788v.891h2v.668h-2v1.114H7.015v.668Zm6.681-1.559.779.223a2.153,2.153,0,0,1-.557,1,1.881,1.881,0,0,1-1.114.334,1.844,1.844,0,0,1-1.336-.557,2.117,2.117,0,0,1-.557-1.448,2.2,2.2,0,0,1,.557-1.559A1.844,1.844,0,0,1,9.8,60.711a1.675,1.675,0,0,1,1.225.445,1.8,1.8,0,0,1,.445.779l-.779.223c0-.223-.111-.334-.334-.445a.851.851,0,0,0-.557-.223,1.011,1.011,0,0,0-.779.334,1.361,1.361,0,0,0-.334,1,2.4,2.4,0,0,0,.223,1.114.962.962,0,0,0,.668.334.851.851,0,0,0,.557-.223,1.289,1.289,0,0,0,.557-.779Zm1.782,1.559V60.823h.779l1.67,2.672V60.823h.668v4.009H14.81l-1.67-2.672v2.672Zm4.12-2a2.224,2.224,0,0,1,.223-1c.111-.223.223-.334.334-.557a.947.947,0,0,1,.557-.334,2.171,2.171,0,0,1,.891-.111,2.117,2.117,0,0,1,1.448.557,2.2,2.2,0,0,1,.557,1.559,2.414,2.414,0,0,1-.557,1.559,1.924,1.924,0,0,1-1.448.557,2.117,2.117,0,0,1-1.448-.557,3.314,3.314,0,0,1-.557-1.67Zm.891-.111a1.361,1.361,0,0,0,.334,1,1.076,1.076,0,0,0,1.559,0,1.67,1.67,0,0,0,0-2,1.076,1.076,0,0,0-1.559,0,1.361,1.361,0,0,0-.334,1Zm4.009,2.116V60.823h.779v3.341h2v.668Zm3.563-2a2.224,2.224,0,0,1,.223-1c.111-.223.223-.334.334-.557a.947.947,0,0,1,.557-.334,2.171,2.171,0,0,1,.891-.111,2.117,2.117,0,0,1,1.448.557,2.2,2.2,0,0,1,.557,1.559,2.414,2.414,0,0,1-.557,1.559,1.924,1.924,0,0,1-1.448.557,2.117,2.117,0,0,1-1.448-.557,2.516,2.516,0,0,1-.557-1.67Zm.779-.111a1.361,1.361,0,0,0,.334,1,1.076,1.076,0,0,0,1.559,0,1.67,1.67,0,0,0,0-2,1.076,1.076,0,0,0-1.559,0,1.361,1.361,0,0,0-.334,1Zm5.9.557V62.6h1.782v1.559a4.843,4.843,0,0,1-.779.445,3.252,3.252,0,0,1-1,.223,3.3,3.3,0,0,1-1.114-.223,1.5,1.5,0,0,1-.668-.779,2.9,2.9,0,0,1,0-2.227,2.6,2.6,0,0,1,.779-.779,2.223,2.223,0,0,1,1-.223,1.662,1.662,0,0,1,1.114.334,1.253,1.253,0,0,1,.557.891l-.779.111c-.111-.223-.111-.334-.334-.445a.851.851,0,0,0-.557-.223,1.264,1.264,0,0,0-.891.334,1.361,1.361,0,0,0-.334,1,1.662,1.662,0,0,0,.334,1.114,1.2,1.2,0,0,0,1.336.223c.223-.111.334-.111.445-.223v-.445Zm2.784,1.559V60.823H35.3v4.009Zm5.456,0h-.891l-.334-.891H37.192l-.334.891h-.891l1.559-4.009h.891l1.559,4.009Zm-1.448-1.67-.557-1.448-.557,1.448Zm4.12,1.67V60.823h3.007v.668H43.427v.891h2v.668h-2v1.114h2.227v.668Zm6.124-4.12H51c.111,0,.334.111.445.111l.334.334a.669.669,0,0,1,.111.445,1,1,0,0,1-.111.557,1.537,1.537,0,0,1-.445.334,2.434,2.434,0,0,1,.557.334c.111.223.223.334.223.557a1,1,0,0,1-.111.557,1.537,1.537,0,0,1-.334.445c-.111.111-.334.111-.557.223H48.772v-3.9Zm.779.668v.891h1.114c.111,0,.223-.111.334-.111a.447.447,0,0,0-.334-.779H49.552Zm0,1.67v1.114h1.336c.111,0,.223-.111.334-.111a.557.557,0,0,0,0-.668L51,63.161a3.937,3.937,0,0,0-.668-.111h-.779Zm3.563,1.782V60.823h.779v4.009Zm1.67-2a2.224,2.224,0,0,1,.223-1c.111-.223.223-.334.334-.557a.947.947,0,0,1,.557-.334,2.171,2.171,0,0,1,.891-.111,2.117,2.117,0,0,1,1.448.557,2.2,2.2,0,0,1,.557,1.559,2.414,2.414,0,0,1-.557,1.559,1.924,1.924,0,0,1-1.448.557,2.117,2.117,0,0,1-1.448-.557,3.314,3.314,0,0,1-.557-1.67Zm.891-.111a1.361,1.361,0,0,0,.334,1,1.076,1.076,0,0,0,1.559,0,1.67,1.67,0,0,0,0-2,1.076,1.076,0,0,0-1.559,0,1.361,1.361,0,0,0-.334,1Zm4.9,2.116V61.491H59.351v-.668H62.58v.668H61.355v3.341Zm2.784,0V60.823h3.007v.668H64.25v.891h2v.668h-2v1.114h2.227v.668Zm6.681-1.559.779.223a2.153,2.153,0,0,1-.557,1,1.881,1.881,0,0,1-1.114.334,1.844,1.844,0,0,1-1.336-.557,2.117,2.117,0,0,1-.557-1.448,2.2,2.2,0,0,1,.557-1.559,1.844,1.844,0,0,1,1.336-.557,1.675,1.675,0,0,1,1.225.445,1.8,1.8,0,0,1,.445.779l-.779.223c0-.223-.111-.334-.334-.445a.851.851,0,0,0-.557-.223,1.011,1.011,0,0,0-.779.334,1.361,1.361,0,0,0-.334,1,2.4,2.4,0,0,0,.223,1.114.962.962,0,0,0,.668.334.851.851,0,0,0,.557-.223,1.289,1.289,0,0,0,.557-.779Zm1.782,1.559V60.823H72.6l1.67,2.672V60.823h.779v4.009h-.779L72.49,62.159v2.672Zm4.12-2a2.224,2.224,0,0,1,.223-1c.111-.223.223-.334.334-.557a.947.947,0,0,1,.557-.334,2.171,2.171,0,0,1,.891-.111,2.117,2.117,0,0,1,1.448.557,2.2,2.2,0,0,1,.557,1.559,2.414,2.414,0,0,1-.557,1.559,1.924,1.924,0,0,1-1.448.557A2.117,2.117,0,0,1,76.5,64.5a3.314,3.314,0,0,1-.557-1.67Zm.891-.111a1.361,1.361,0,0,0,.334,1,1.076,1.076,0,0,0,1.559,0,1.67,1.67,0,0,0,0-2,1.076,1.076,0,0,0-1.559,0,1.361,1.361,0,0,0-.334,1Zm4.009,2.116V60.823h.779v3.341h2v.668Zm3.563-2a2.224,2.224,0,0,1,.223-1c.111-.223.223-.334.334-.557a.947.947,0,0,1,.557-.334,2.171,2.171,0,0,1,.891-.111,2.117,2.117,0,0,1,1.448.557,2.2,2.2,0,0,1,.557,1.559,2.414,2.414,0,0,1-.557,1.559,1.924,1.924,0,0,1-1.448.557,2.117,2.117,0,0,1-1.448-.557,2.516,2.516,0,0,1-.557-1.67Zm.779-.111a1.361,1.361,0,0,0,.334,1,1.076,1.076,0,0,0,1.559,0,1.67,1.67,0,0,0,0-2,1.076,1.076,0,0,0-1.559,0,1.361,1.361,0,0,0-.334,1Zm5.9.557V62.6h1.782v1.559a4.843,4.843,0,0,1-.779.445,3.252,3.252,0,0,1-1,.223,3.3,3.3,0,0,1-1.114-.223,1.5,1.5,0,0,1-.668-.779,2.9,2.9,0,0,1,0-2.227,2.6,2.6,0,0,1,.779-.779,2.223,2.223,0,0,1,1-.223,1.662,1.662,0,0,1,1.114.334,1.253,1.253,0,0,1,.557.891l-.779.111c-.111-.223-.111-.334-.334-.445a.851.851,0,0,0-.557-.223,1.264,1.264,0,0,0-.891.334,1.361,1.361,0,0,0-.334,1,1.662,1.662,0,0,0,.334,1.114,1.2,1.2,0,0,0,1.336.223c.223-.111.334-.111.445-.223v-.445Zm2.784,1.559V60.823h.779v4.009Zm5.568,0h-.891l-.334-.891H96.654l-.334.891h-.891l1.559-4.009h.891l1.559,4.009Zm-1.559-1.67-.557-1.448-.557,1.448Zm4.12-2.45h1.448a1.651,1.651,0,0,1,.779.111,2.434,2.434,0,0,1,.557.334.962.962,0,0,1,.334.668,2.471,2.471,0,0,1,.111,1,2.171,2.171,0,0,1-.111.891,1.022,1.022,0,0,1-.445.668,2.434,2.434,0,0,1-.557.334,1.412,1.412,0,0,1-.668.111h-1.559v-4.12Zm.779.779v2.672h1c.111,0,.223-.111.334-.223s.111-.223.223-.334c0-.223.111-.445.111-.779s0-.557-.111-.668c0-.111-.111-.334-.223-.334-.111-.111-.223-.111-.334-.223h-1Zm3.452,1.336a2.223,2.223,0,0,1,.223-1c.111-.223.223-.334.334-.557a.947.947,0,0,1,.557-.334,2.171,2.171,0,0,1,.891-.111,2.117,2.117,0,0,1,1.448.557,2.2,2.2,0,0,1,.557,1.559,2.414,2.414,0,0,1-.557,1.559,1.924,1.924,0,0,1-1.448.557,2.117,2.117,0,0,1-1.448-.557,2.516,2.516,0,0,1-.557-1.67Zm.779-.111a1.361,1.361,0,0,0,.334,1,1.076,1.076,0,0,0,1.559,0,1.67,1.67,0,0,0,0-2,1.076,1.076,0,0,0-1.559,0,1.361,1.361,0,0,0-.334,1Zm9.465,2.116h-.891l-.334-.891h-1.559l-.334.891h-.891l1.559-4.009h.891l1.559,4.009Zm-1.448-1.67-.557-1.448-.557,1.448Zm2.227,1.67V60.823h1.225l.668,2.784.668-2.784h1.225v4.009h-.779V61.714l-.779,3.118H118.7l-.779-3.118v3.118Zm8.574,0h-.891l-.334-.891h-1.559l-.334.891h-.891l1.559-4.009h.891l1.559,4.009Zm-1.448-1.67-.557-1.448-.557,1.448Zm1.893,1.67v-.779l2.116-2.561H126.5v-.668h2.9v.668l-2.227,2.672h2.227v.668Zm3.9-2a2.223,2.223,0,0,1,.223-1c.111-.223.223-.334.334-.557a.947.947,0,0,1,.557-.334,2.171,2.171,0,0,1,.891-.111,2.117,2.117,0,0,1,1.448.557,2.2,2.2,0,0,1,.557,1.559,2.414,2.414,0,0,1-.557,1.559,1.924,1.924,0,0,1-1.448.557,2.117,2.117,0,0,1-1.448-.557,2.516,2.516,0,0,1-.557-1.67Zm.779-.111a1.361,1.361,0,0,0,.334,1,1.076,1.076,0,0,0,1.559,0,1.67,1.67,0,0,0,0-2,1.076,1.076,0,0,0-1.559,0,1.361,1.361,0,0,0-.334,1Zm4.009,2.116V60.823h.779l1.67,2.672V60.823h.779v4.009h-.779l-1.67-2.672v2.672Zm8.017,0h-.891l-.334-.891h-1.559l-.334.891h-.891l1.559-4.009h.891l1.559,4.009Zm-1.448-1.67-.557-1.448-.557,1.448Zm2,.334.779-.111a.612.612,0,0,0,.334.557.851.851,0,0,0,.557.223.834.834,0,0,0,.557-.111c.111-.111.223-.223.223-.334s0-.223-.111-.223c0-.111-.111-.111-.334-.223a4.379,4.379,0,0,1-.668-.223c-.445-.111-.779-.223-.891-.445a1.011,1.011,0,0,1-.334-.779.851.851,0,0,1,.223-.557c.111-.223.334-.334.445-.445a1.651,1.651,0,0,1,.779-.111,1.478,1.478,0,0,1,1.114.334,2.238,2.238,0,0,1,.445.891h-.779a.579.579,0,0,0-.223-.445,1.448,1.448,0,0,0-1.114,0c-.111.111-.111.111-.111.223s0,.223.111.223a1.065,1.065,0,0,0,.779.223,3.77,3.77,0,0,1,.891.334.869.869,0,0,1,.445.445,1.206,1.206,0,0,1,.111.668,1.583,1.583,0,0,1-.223.668,1.112,1.112,0,0,1-.557.445,2.171,2.171,0,0,1-.891.111,1.478,1.478,0,0,1-1.114-.334A1.412,1.412,0,0,1,143.533,63.5Z" transform="translate(0 6.879)"/>
    <path id="Instituto_Transire_1_" class="cls-1" d="M2.527,57.613H.3V47.034H2.416V57.613Zm10.69,0H11.1L6.758,50.375h0V57.5H4.643V47.034H6.758L11.1,54.161h0V47.034h2.116V57.613Zm7.461-2.784a1.085,1.085,0,0,0-.445-1,5.956,5.956,0,0,0-1.448-.668A7.21,7.21,0,0,1,16,51.822a2.529,2.529,0,0,1-1-2A2.412,2.412,0,0,1,16.112,47.7a4.347,4.347,0,0,1,2.784-.779,4.718,4.718,0,0,1,2.9.891,2.584,2.584,0,0,1,1,2.338H20.677a1.521,1.521,0,0,0-.445-1.225,1.775,1.775,0,0,0-1.336-.445,2,2,0,0,0-1.225.334,1.085,1.085,0,0,0-.445,1,1.013,1.013,0,0,0,.445.891,12.531,12.531,0,0,0,1.67.779,5.979,5.979,0,0,1,2.672,1.336A2.5,2.5,0,0,1,22.9,54.94a2.292,2.292,0,0,1-1.114,2.116,4.347,4.347,0,0,1-2.784.779A5.6,5.6,0,0,1,16,56.944a3.02,3.02,0,0,1-1.225-2.561h2.116a1.519,1.519,0,0,0,.557,1.336,2.177,2.177,0,0,0,1.559.445,2.375,2.375,0,0,0,1.336-.334,1.361,1.361,0,0,0,.334-1Zm11.135-6.236H28.806v9.02H26.69v-9.02H23.684V47.034h8.129v1.559Zm3.452,9.02H33.149V47.034h2.116V57.613Zm9.354-9.02H41.612v9.02H39.5v-9.02H36.489V47.034h8.129v1.559Zm9.576-1.559v7.015a3.457,3.457,0,0,1-1.225,2.784,4.561,4.561,0,0,1-3.118,1,4.763,4.763,0,0,1-3.118-1,3.619,3.619,0,0,1-1.225-2.784V47.034h2.338v7.015a2.735,2.735,0,0,0,.557,1.67,2.461,2.461,0,0,0,3.118,0,2.305,2.305,0,0,0,.557-1.67V47.034Zm9.354,1.559H60.542v9.02H58.426v-9.02H55.419V47.034h8.129v1.559Zm9.576,4.677A4.646,4.646,0,0,1,71.9,56.5a4.045,4.045,0,0,1-3.229,1.225,4.283,4.283,0,0,1-3.229-1.336,4.646,4.646,0,0,1-1.225-3.229V51.265a4.646,4.646,0,0,1,1.225-3.229,4.57,4.57,0,0,1,6.458,0,4.646,4.646,0,0,1,1.225,3.229v2Zm-2.116-1.893a2.906,2.906,0,0,0-.668-2,2,2,0,0,0-1.67-.779,1.874,1.874,0,0,0-1.67.779,3.04,3.04,0,0,0-.557,2V53.27A3.961,3.961,0,0,0,67,55.385a2,2,0,0,0,1.67.779,1.758,1.758,0,0,0,1.67-.779,3.211,3.211,0,0,0,.668-2.116V51.377ZM85.93,48.593H82.923v9.02H80.808v-9.02H77.8V47.034H85.93v1.559Zm3.341,4.788v4.231H87.155V47.034h3.675a4.686,4.686,0,0,1,2.9.779,2.876,2.876,0,0,1,1,2.338,2.238,2.238,0,0,1-.445,1.448,3.709,3.709,0,0,1-1.225,1,2.045,2.045,0,0,1,1.336.891,3.625,3.625,0,0,1,.445,1.559v.779a2.452,2.452,0,0,0,.111.891,1.022,1.022,0,0,0,.445.668V57.5H93.168a.867.867,0,0,1-.334-.779c0-.334-.111-.668-.111-1V54.94a1.541,1.541,0,0,0-1.67-1.67H89.27Zm0-1.67h1.559a2.375,2.375,0,0,0,1.336-.334,1.615,1.615,0,0,0,0-2.227,1.775,1.775,0,0,0-1.336-.445H89.27v3.007Zm12.917,3.675H98.735l-.668,2.338H95.84L99.4,47.034h2.227l3.563,10.69h-2.227l-.779-2.338Zm-2.9-1.67h2.45l-1.225-3.786h0l-1.225,3.786Zm15.478,3.9h-2.116l-4.343-7.238h0V57.5H106.2V47.034h2.116l4.343,7.127h0V47.034h2.116V57.613Zm7.572-2.784a1.085,1.085,0,0,0-.445-1,5.956,5.956,0,0,0-1.448-.668,7.21,7.21,0,0,1-2.784-1.336,2.529,2.529,0,0,1-1-2,2.412,2.412,0,0,1,1.114-2.116,4.347,4.347,0,0,1,2.784-.779,4.718,4.718,0,0,1,2.9.891,2.584,2.584,0,0,1,1,2.338h-2.116a1.521,1.521,0,0,0-.445-1.225,1.775,1.775,0,0,0-1.336-.445,2,2,0,0,0-1.225.334,1.085,1.085,0,0,0-.445,1,1.013,1.013,0,0,0,.445.891,12.532,12.532,0,0,0,1.67.779,5.979,5.979,0,0,1,2.672,1.336,2.5,2.5,0,0,1,.891,2.116,2.292,2.292,0,0,1-1.114,2.116,4.347,4.347,0,0,1-2.784.779,5.6,5.6,0,0,1-3.007-.891,3.02,3.02,0,0,1-1.225-2.561h2.116a1.519,1.519,0,0,0,.557,1.336,2.177,2.177,0,0,0,1.559.445,2.375,2.375,0,0,0,1.336-.334,2.114,2.114,0,0,0,.334-1Zm6.013,2.784h-2.116V47.034h2.116V57.613Zm4.231-4.231v4.231h-2.116V47.034h3.675a4.686,4.686,0,0,1,2.9.779,2.876,2.876,0,0,1,1,2.338A2.238,2.238,0,0,1,137.6,51.6a3.709,3.709,0,0,1-1.225,1,2.045,2.045,0,0,1,1.336.891,3.625,3.625,0,0,1,.445,1.559v.779a2.452,2.452,0,0,0,.111.891,1.022,1.022,0,0,0,.445.668V57.5h-2.227a.867.867,0,0,1-.334-.779c0-.334-.111-.668-.111-1V54.94a1.541,1.541,0,0,0-1.67-1.67h-1.782Zm0-1.67h1.559a2.375,2.375,0,0,0,1.336-.334,1.615,1.615,0,0,0,0-2.227,1.775,1.775,0,0,0-1.336-.445h-1.559v3.007Zm13.474,1.225h-3.9v3.007h4.677v1.67h-6.792V47.034h6.792V48.7h-4.677v2.672h3.9Z" transform="translate(0.034 5.301)"/>
    <path id="Ãcone_1_" class="cls-1" d="M72.241,4.788a49.719,49.719,0,0,0-9.131.779V.668A.718.718,0,0,0,62.442,0H56.763a.642.642,0,0,0-.668.668c0,.779-.111,3.675,0,5.122a1.5,1.5,0,0,1-.557,1.336L50.3,12.249a1.844,1.844,0,0,1-1.336.557H45.739a1.264,1.264,0,0,1-.891-.334l-2.9-2.9a1.264,1.264,0,0,1-.334-.891V6.57a.3.3,0,0,0-.334-.334H38.5a.3.3,0,0,0-.334.334V9.354a.3.3,0,0,0,.334.334h2.116a1.264,1.264,0,0,1,.891.334l2.9,2.9a1.264,1.264,0,0,1,.334.891v3.229a2.054,2.054,0,0,1-.557,1.336l-3.786,3.786a1.844,1.844,0,0,1-1.336.557H36.051a.479.479,0,0,0-.445.445v3.786a.479.479,0,0,0,.445.445h3.118a1.36,1.36,0,0,1,1,.445l1.782,1.782a1.411,1.411,0,0,1,.445,1v4.12a.526.526,0,0,0,.557.557h4.565a.526.526,0,0,0,.557-.557V30.065a.526.526,0,0,0-.557-.557c-1.114,0-2.9-.111-4.12,0a1.085,1.085,0,0,1-1-.445l-1.782-1.782a1.411,1.411,0,0,1-.445-1V23.941a2.054,2.054,0,0,1,.557-1.336l3.786-3.786a1.844,1.844,0,0,1,1.336-.557h3.675a.526.526,0,0,0,.557-.557V14.03a2.054,2.054,0,0,1,.557-1.336l5.122-5.122A1.844,1.844,0,0,1,57.1,7.015h5.122v7.127a1.116,1.116,0,0,1-1.114,1.114H58.322V12.917a.3.3,0,0,0-.334-.334h-2.45a.3.3,0,0,0-.334.334V14.81a1.011,1.011,0,0,1-.334.779l-6.458,6.458a1.011,1.011,0,0,1-.779.334H45.071a.479.479,0,0,0-.445.445v3.118a.479.479,0,0,0,.445.445h3.118a.479.479,0,0,0,.445-.445V23.384a1.011,1.011,0,0,1,.334-.779l6.458-6.458a1.011,1.011,0,0,1,.779-.334h1.782v6.9h5.9L76.138,11.024a.67.67,0,0,1,1.114.445.844.844,0,0,1-.223.445l-11.247,10.8h11.8l9.688-9.354a.67.67,0,0,1,1.114.445.844.844,0,0,1-.223.445l-8.8,8.463h11.8l7.238-6.9a.67.67,0,0,1,1.114.445.844.844,0,0,1-.223.445l-6.236,6.013H112.1c-8.574-10.8-23.161-17.928-39.864-17.928ZM60.215,36.3H54.981a.761.761,0,0,0-.779.779v5.234a.761.761,0,0,0,.779.779h5.234a.761.761,0,0,0,.779-.779V37.08a.938.938,0,0,0-.779-.779Zm-23.05-4.788a.479.479,0,0,1,.445.445v3.007a.479.479,0,0,1-.445.445H34.158a.479.479,0,0,1-.445-.445V31.958a.479.479,0,0,1,.445-.445ZM31.6,21.046h-2.45a.3.3,0,0,0-.334.334v2.45a.3.3,0,0,0,.334.334H31.6a.3.3,0,0,0,.334-.334V21.38c.111-.223-.111-.334-.334-.334Zm25.945,3.007H63.89L76.027,35.744a.632.632,0,1,0,.891-.891l-11.135-10.8h11.8l9.688,9.354a.632.632,0,1,0,.891-.891l-8.8-8.463h11.8l7.238,6.9a.632.632,0,1,0,.891-.891l-6.236-6.013H112.1c-8.463,10.8-23.161,17.928-39.864,17.928a59.264,59.264,0,0,1-9.02-.668v-6.57a.878.878,0,0,0-.891-.891H53.756a1.236,1.236,0,0,1-1.225-1.225V25.277a1.236,1.236,0,0,1,1.225-1.225ZM29.259,7.795h4.565a.718.718,0,0,1,.668.668v4.231a1.011,1.011,0,0,0,.334.779l2.116,2.116a1.011,1.011,0,0,0,.779.334H39.5a.3.3,0,0,1,.334.334V18.6a.3.3,0,0,1-.334.334H37.165a.3.3,0,0,1-.334-.334V16.814a1.011,1.011,0,0,0-.334-.779l-2.116-2.116a1.2,1.2,0,0,0-.779-.334c-1.114.111-3.341,0-4.231,0a.718.718,0,0,1-.668-.668V8.463A.558.558,0,0,1,29.259,7.795Z" transform="translate(3.256)"/>
  </g>
</svg>
