<svg xmlns="http://www.w3.org/2000/svg" viewBox="0 0 245.563 164.5">
  <defs>
    <style>
      .cls-1 {
        fill: #78909c;
      }

      .cls-2 {
        fill: #00c853;
      }

      .cls-2, .cls-3, .cls-4 {
        fill-rule: evenodd;
      }

      .cls-3, .cls-4 {
        fill: #4caf50;
      }

      .cls-4 {
        opacity: 0.54;
      }
    </style>
  </defs>
  <g id="Group_298" data-name="Group 298" transform="translate(0.1)">
    <g id="Group_244" data-name="Group 244" transform="translate(-0.1 58.542)">
      <path id="Path_84" data-name="Path 84" class="cls-1" d="M21.268,92.744a6.542,6.542,0,0,0-1.425-1.153,9.353,9.353,0,0,0-2.035-.95,12.841,12.841,0,0,0-2.442-.678,12.483,12.483,0,0,0-2.781-.271c-2.51,0-4.341.407-5.495,1.289a4.219,4.219,0,0,0-1.764,3.527A3.385,3.385,0,0,0,5.8,96.475a5.227,5.227,0,0,0,1.56,1.357,9.9,9.9,0,0,0,2.646.95c1.018.271,2.306.543,3.731.882,1.628.339,3.12.746,4.477,1.153a10.527,10.527,0,0,1,3.392,1.628,7.746,7.746,0,0,1,2.171,2.306,7.17,7.17,0,0,1,.746,3.392,6.982,6.982,0,0,1-.882,3.663,8.047,8.047,0,0,1-2.442,2.578,11.214,11.214,0,0,1-3.663,1.492,19.669,19.669,0,0,1-4.613.475,21.534,21.534,0,0,1-6.987-1.085A19.648,19.648,0,0,1-.1,112.145l1.967-3.188a9.2,9.2,0,0,0,1.9,1.425,16.04,16.04,0,0,0,2.646,1.289,15.1,15.1,0,0,0,3.12.882,20.059,20.059,0,0,0,3.527.339,10.207,10.207,0,0,0,5.291-1.153,3.662,3.662,0,0,0,1.9-3.392,3.505,3.505,0,0,0-.611-2.1,5.558,5.558,0,0,0-1.764-1.492,13.146,13.146,0,0,0-2.917-1.085,37.424,37.424,0,0,0-3.934-.95,37.956,37.956,0,0,1-4.274-1.153A10.672,10.672,0,0,1,3.7,100.071a6.966,6.966,0,0,1-1.9-2.1,6.692,6.692,0,0,1-.611-2.985,7.4,7.4,0,0,1,.882-3.731,7.57,7.57,0,0,1,2.374-2.713,11.414,11.414,0,0,1,3.663-1.7,16.556,16.556,0,0,1,4.613-.543,19.167,19.167,0,0,1,5.834.882,16.6,16.6,0,0,1,4.613,2.442Z" transform="translate(0.1 -86.3)"/>
      <path id="Path_85" data-name="Path 85" class="cls-1" d="M64.156,112.077a13.49,13.49,0,0,1-9.7,4.206,13.2,13.2,0,0,1-5.9-1.289,14.834,14.834,0,0,1-4.681-3.392,16.347,16.347,0,0,1-3.12-4.816,14.588,14.588,0,0,1-1.153-5.562,15,15,0,0,1,1.153-5.7,14.822,14.822,0,0,1,7.869-8A14.455,14.455,0,0,1,54.592,86.3a15.256,15.256,0,0,1,7.665,1.764A12.035,12.035,0,0,1,66.8,92.744l-3.12,1.967a9.308,9.308,0,0,0-3.8-3.8,11.546,11.546,0,0,0-5.359-1.221,10.262,10.262,0,0,0-4.409.95,11.529,11.529,0,0,0-3.392,2.578,12.289,12.289,0,0,0-2.917,8.072,12.139,12.139,0,0,0,3.256,8.208,10.816,10.816,0,0,0,3.527,2.51,10.672,10.672,0,0,0,4.409.882c3.46,0,6.648-1.56,9.429-4.681v-4.07H57.237v-2.849H67.548v14.72H64.156v-3.934Z" transform="translate(-12.669 -86.3)"/>
      <path id="Path_86" data-name="Path 86" class="cls-1" d="M88.3,116.176V86.6h13.364a8.97,8.97,0,0,1,3.867.814,9.974,9.974,0,0,1,3.053,2.171,10.449,10.449,0,0,1,2.035,3.053,8.815,8.815,0,0,1,.746,3.46,9.067,9.067,0,0,1-.678,3.527,10.069,10.069,0,0,1-1.9,3.053,8.513,8.513,0,0,1-2.985,2.1,8.97,8.97,0,0,1-3.867.814H92.3v10.582h-4Zm4-13.974h9.361a5.206,5.206,0,0,0,2.306-.475,5.6,5.6,0,0,0,1.764-1.357,6.273,6.273,0,0,0,1.153-1.967,6.987,6.987,0,0,0,.407-2.374,5.814,5.814,0,0,0-.475-2.442,6.594,6.594,0,0,0-1.289-1.967,5.628,5.628,0,0,0-1.832-1.289,6,6,0,0,0-2.239-.475H92.3Z" transform="translate(-28.334 -86.396)"/>
      <path id="Path_87" data-name="Path 87" class="cls-1" d="M175.2,176.208V146.7h4.07v29.508Z" transform="translate(-56.285 -105.728)"/>
      <path id="Path_88" data-name="Path 88" class="cls-1" d="M212.384,149.924H201.327v26.184h-4.07V149.924H186.2V146.6h26.116v3.324Z" transform="translate(-59.823 -105.695)"/>
      <path id="Path_89" data-name="Path 89" class="cls-1" d="M254.556,168.543a6.832,6.832,0,0,1-.746,3.12,7.016,7.016,0,0,1-2.035,2.442,10.389,10.389,0,0,1-2.985,1.56,12.455,12.455,0,0,1-3.6.543H230V146.7h15.873a6.7,6.7,0,0,1,3.053.678,8.469,8.469,0,0,1,2.306,1.7,8.714,8.714,0,0,1,1.492,2.442,7.734,7.734,0,0,1,.543,2.713,7.179,7.179,0,0,1-1.221,4.07,7.274,7.274,0,0,1-3.392,2.781A7.95,7.95,0,0,1,253,163.862,7.344,7.344,0,0,1,254.556,168.543ZM234,149.888v9.836h10.175a4.639,4.639,0,0,0,1.967-.407,4.969,4.969,0,0,0,1.56-1.085,4.774,4.774,0,0,0,1.018-1.56,4.552,4.552,0,0,0,.407-1.9,6.3,6.3,0,0,0-.339-1.967,5.049,5.049,0,0,0-.95-1.56,3.273,3.273,0,0,0-1.492-1.018,5.938,5.938,0,0,0-1.9-.407H234Zm16.416,18.044a5.11,5.11,0,0,0-.407-1.967,6.6,6.6,0,0,0-1.018-1.628,5.491,5.491,0,0,0-1.56-1.153,4.866,4.866,0,0,0-1.967-.407H234v10.175h11.125a5.528,5.528,0,0,0,2.1-.407,8.987,8.987,0,0,0,1.7-1.085,5.473,5.473,0,0,0,1.153-1.628A6.231,6.231,0,0,0,250.418,167.932Z" transform="translate(-73.912 -105.728)"/>
      <path id="Path_90" data-name="Path 90" class="cls-1" d="M279.96,146.6h3.392l13.092,29.508H292.1l-3.8-8.683H274.872l-3.731,8.683H266.8Zm7.462,17.976-5.766-13.635-5.969,13.635Z" transform="translate(-85.748 -105.695)"/>
      <path id="Path_91" data-name="Path 91" class="cls-1" d="M342.877,176.208v-22.86l-10.65,17.5H329.92l-10.65-17.5v22.86H315.2V146.7h4.274l11.6,19.2,11.6-19.2h4.206v29.508Z" transform="translate(-101.316 -105.728)"/>
    </g>
    <path id="Path_92" data-name="Path 92" class="cls-2" d="M107.3,157.9" transform="translate(-34.545 -50.788)"/>
    <path id="Path_93" data-name="Path 93" class="cls-3" d="M220.837,3.663A3.537,3.537,0,0,0,220.5,2.1h0V2.035a3.4,3.4,0,0,0-2.51-1.967A1.878,1.878,0,0,0,217.377,0H190.786a3.4,3.4,0,0,0-3.392,3.392c0,3.731-.407,17.162-.2,23.878a8.141,8.141,0,0,1-2.51,6.309L160.939,57.321a8.145,8.145,0,0,1-6.037,2.51H140.113a5.284,5.284,0,0,1-4-1.7L122.747,44.771a5.539,5.539,0,0,1-1.7-4V30.8a1.651,1.651,0,0,0-1.628-1.628H106.331A1.651,1.651,0,0,0,104.7,30.8V43.889a1.651,1.651,0,0,0,1.628,1.628h9.9a5.284,5.284,0,0,1,4,1.7l13.431,13.364a5.539,5.539,0,0,1,1.7,4V79.367a8.04,8.04,0,0,1-2.51,6.037l-17.841,17.841a8.145,8.145,0,0,1-6.037,2.51H95.139a2.258,2.258,0,0,0-2.239,2.239v17.569a2.258,2.258,0,0,0,2.239,2.239h14.788a6.09,6.09,0,0,1,4.477,1.832l8.479,8.479a6.09,6.09,0,0,1,1.832,4.477v19.2a2.721,2.721,0,0,0,2.713,2.713h21.5a2.721,2.721,0,0,0,2.713-2.713v-21.5a2.721,2.721,0,0,0-2.713-2.713c-5.359,0-13.3-.407-19.129-.2a6.183,6.183,0,0,1-4.748-1.832l-8.276-8.276a6.09,6.09,0,0,1-1.832-4.477V111.724a8.04,8.04,0,0,1,2.51-6.037L135.3,87.846a8.145,8.145,0,0,1,6.037-2.51h17.027a2.577,2.577,0,0,0,2.578-2.578V65.732a8.04,8.04,0,0,1,2.51-6.037L187.53,35.613a7.745,7.745,0,0,1,3.663-2.1h26.184a3.4,3.4,0,0,0,3.392-3.392C220.633,26.524,221.108,10.379,220.837,3.663Z" transform="translate(-29.913)"/>
    <path id="Path_94" data-name="Path 94" class="cls-4" d="M237.8,112.1h-6.987a1.043,1.043,0,0,0-1.018,1.018V120.1a1.043,1.043,0,0,0,1.018,1.018H237.8a1.043,1.043,0,0,0,1.018-1.018v-6.987A1.094,1.094,0,0,0,237.8,112.1Z" transform="translate(-73.947 -36.057)"/>
    <path id="Path_95" data-name="Path 95" class="cls-4" d="M236.625,72.1h9.7a1.319,1.319,0,0,1,1.357,1.357v9.022a2.2,2.2,0,0,0,.678,1.628l4.545,4.545a2.2,2.2,0,0,0,1.628.678h3.731a.753.753,0,0,1,.746.746V95.1a.753.753,0,0,1-.746.746h-5.02a.753.753,0,0,1-.746-.746V91.365a2.2,2.2,0,0,0-.678-1.628l-4.477-4.477a2.4,2.4,0,0,0-1.764-.678c-2.374.136-7.191-.068-9.022-.068a1.361,1.361,0,0,1-1.357-1.357v-9.7A1.469,1.469,0,0,1,236.625,72.1Z" transform="translate(-75.684 -23.191)"/>
    <path id="Path_96" data-name="Path 96" class="cls-4" d="M178.921,55.8a1.216,1.216,0,0,0-1.221,1.221v8.615a1.216,1.216,0,0,0,1.221,1.221h8.615a1.216,1.216,0,0,0,1.221-1.221V57.021a1.216,1.216,0,0,0-1.221-1.221Z" transform="translate(-57.189 -17.948)"/>
    <path id="Path_97" data-name="Path 97" class="cls-4" d="M173.369,8.264V20.2a1.679,1.679,0,0,1-1.7,1.7c-2.239,0-8.14.271-11.057.068a2.667,2.667,0,0,0-2.171.814l-5.495,5.495a2.761,2.761,0,0,0-.814,2.035v4.545a.9.9,0,0,1-.882.882h-6.173a.9.9,0,0,1-.882-.882V28.682a.9.9,0,0,1,.882-.882h4.545a2.872,2.872,0,0,0,2.035-.814l5.63-5.63a2.761,2.761,0,0,0,.814-2.035V8.2a1.679,1.679,0,0,1,1.7-1.7h11.939A1.774,1.774,0,0,1,173.369,8.264Z" transform="translate(-46.414 -2.091)"/>
  </g>
</svg>
