<svg xmlns="http://www.w3.org/2000/svg" xmlns:xlink="http://www.w3.org/1999/xlink" viewBox="0 0 131.9 64.6">
  <defs>
    <style>
      .cls-1 {
        fill: #132c49;
      }

      .cls-1, .cls-2 {
        fill-rule: evenodd;
      }

      .cls-2 {
        fill: url(#linear-gradient);
      }
    </style>
    <linearGradient id="linear-gradient" x1="-0.001" y1="0.499" x2="1" y2="0.499" gradientUnits="objectBoundingBox">
      <stop offset="0" stop-color="#00965f"/>
      <stop offset="1" stop-color="#fcc200"/>
    </linearGradient>
  </defs>
  <g id="marca-transire" transform="translate(-0.001)">
    <path id="Tecnologia_e_Biotecnologia_do_Amazonas_1_" class="cls-1" d="M1.1,64.4v-3H0v-.6H2.9v.6H1.8v3Zm2.5,0V60.8H6.3v.6h-2v.8H6.1v.6H4.3v1h2v.6Zm6-1.4.7.2a1.934,1.934,0,0,1-.5.9,1.689,1.689,0,0,1-1,.3,1.656,1.656,0,0,1-1.2-.5,1.9,1.9,0,0,1-.5-1.3,1.978,1.978,0,0,1,.5-1.4,1.656,1.656,0,0,1,1.2-.5,1.5,1.5,0,0,1,1.1.4,1.612,1.612,0,0,1,.4.7l-.7.2c0-.2-.1-.3-.3-.4a.764.764,0,0,0-.5-.2.908.908,0,0,0-.7.3,1.222,1.222,0,0,0-.3.9,2.151,2.151,0,0,0,.2,1,.864.864,0,0,0,.6.3.764.764,0,0,0,.5-.2,1.157,1.157,0,0,0,.5-.7Zm1.6,1.4V60.8h.7l1.5,2.4V60.8H14v3.6h-.7L11.8,62v2.4Zm3.7-1.8a2,2,0,0,1,.2-.9c.1-.2.2-.3.3-.5a.85.85,0,0,1,.5-.3,1.949,1.949,0,0,1,.8-.1,1.9,1.9,0,0,1,1.3.5,1.978,1.978,0,0,1,.5,1.4,2.168,2.168,0,0,1-.5,1.4,1.727,1.727,0,0,1-1.3.5,1.9,1.9,0,0,1-1.3-.5,2.976,2.976,0,0,1-.5-1.5Zm.8-.1a1.222,1.222,0,0,0,.3.9.967.967,0,0,0,1.4,0,1.5,1.5,0,0,0,0-1.8.967.967,0,0,0-1.4,0,1.222,1.222,0,0,0-.3.9Zm3.6,1.9V60.8H20v3h1.8v.6Zm3.2-1.8a2,2,0,0,1,.2-.9c.1-.2.2-.3.3-.5a.85.85,0,0,1,.5-.3,1.949,1.949,0,0,1,.8-.1,1.9,1.9,0,0,1,1.3.5,1.978,1.978,0,0,1,.5,1.4,2.168,2.168,0,0,1-.5,1.4,1.727,1.727,0,0,1-1.3.5,1.9,1.9,0,0,1-1.3-.5,2.26,2.26,0,0,1-.5-1.5Zm.7-.1a1.222,1.222,0,0,0,.3.9.967.967,0,0,0,1.4,0,1.5,1.5,0,0,0,0-1.8.967.967,0,0,0-1.4,0,1.222,1.222,0,0,0-.3.9Zm5.3.5v-.6h1.6v1.4a4.348,4.348,0,0,1-.7.4,2.92,2.92,0,0,1-.9.2,2.959,2.959,0,0,1-1-.2,1.344,1.344,0,0,1-.6-.7,2.6,2.6,0,0,1,0-2,2.336,2.336,0,0,1,.7-.7,2,2,0,0,1,.9-.2,1.493,1.493,0,0,1,1,.3,1.126,1.126,0,0,1,.5.8l-.7.1c-.1-.2-.1-.3-.3-.4a.764.764,0,0,0-.5-.2,1.135,1.135,0,0,0-.8.3,1.222,1.222,0,0,0-.3.9,1.493,1.493,0,0,0,.3,1,1.074,1.074,0,0,0,1.2.2c.2-.1.3-.1.4-.2V63ZM31,64.4V60.8h.7v3.6Zm4.9,0h-.8l-.3-.8H33.4l-.3.8h-.8l1.4-3.6h.8l1.4,3.6Zm-1.3-1.5-.5-1.3-.5,1.3Zm3.7,1.5V60.8H41v.6H39v.8h1.8v.6H39v1h2v.6Zm5.5-3.7h2c.1,0,.3.1.4.1l.3.3a.6.6,0,0,1,.1.4.9.9,0,0,1-.1.5,1.38,1.38,0,0,1-.4.3,2.186,2.186,0,0,1,.5.3c.1.2.2.3.2.5a.9.9,0,0,1-.1.5,1.38,1.38,0,0,1-.3.4c-.1.1-.3.1-.5.2H43.8V60.7Zm.7.6v.8h1c.1,0,.2-.1.3-.1a.4.4,0,0,0-.3-.7h-1Zm0,1.5v1h1.2c.1,0,.2-.1.3-.1a.5.5,0,0,0,0-.6l-.2-.2a3.536,3.536,0,0,0-.6-.1h-.7Zm3.2,1.6V60.8h.7v3.6Zm1.5-1.8a2,2,0,0,1,.2-.9c.1-.2.2-.3.3-.5a.85.85,0,0,1,.5-.3,1.949,1.949,0,0,1,.8-.1,1.9,1.9,0,0,1,1.3.5,1.978,1.978,0,0,1,.5,1.4,2.168,2.168,0,0,1-.5,1.4,1.727,1.727,0,0,1-1.3.5,1.9,1.9,0,0,1-1.3-.5,2.976,2.976,0,0,1-.5-1.5Zm.8-.1a1.222,1.222,0,0,0,.3.9.967.967,0,0,0,1.4,0,1.5,1.5,0,0,0,0-1.8.967.967,0,0,0-1.4,0,1.222,1.222,0,0,0-.3.9Zm4.4,1.9v-3H53.3v-.6h2.9v.6H55.1v3Zm2.5,0V60.8h2.7v.6H57.7v.8h1.8v.6H57.7v1h2v.6Zm6-1.4.7.2a1.934,1.934,0,0,1-.5.9,1.689,1.689,0,0,1-1,.3,1.656,1.656,0,0,1-1.2-.5,1.9,1.9,0,0,1-.5-1.3,1.978,1.978,0,0,1,.5-1.4,1.656,1.656,0,0,1,1.2-.5,1.5,1.5,0,0,1,1.1.4,1.612,1.612,0,0,1,.4.7l-.7.2c0-.2-.1-.3-.3-.4a.764.764,0,0,0-.5-.2.908.908,0,0,0-.7.3,1.222,1.222,0,0,0-.3.9,2.151,2.151,0,0,0,.2,1,.864.864,0,0,0,.6.3.764.764,0,0,0,.5-.2,1.157,1.157,0,0,0,.5-.7Zm1.6,1.4V60.8h.7l1.5,2.4V60.8h.7v3.6h-.7L65.1,62v2.4Zm3.7-1.8a2,2,0,0,1,.2-.9c.1-.2.2-.3.3-.5a.85.85,0,0,1,.5-.3,1.949,1.949,0,0,1,.8-.1,1.9,1.9,0,0,1,1.3.5,1.978,1.978,0,0,1,.5,1.4,2.168,2.168,0,0,1-.5,1.4,1.728,1.728,0,0,1-1.3.5,1.9,1.9,0,0,1-1.3-.5,2.976,2.976,0,0,1-.5-1.5Zm.8-.1a1.222,1.222,0,0,0,.3.9.967.967,0,0,0,1.4,0,1.5,1.5,0,0,0,0-1.8.967.967,0,0,0-1.4,0,1.222,1.222,0,0,0-.3.9Zm3.6,1.9V60.8h.7v3h1.8v.6Zm3.2-1.8a2,2,0,0,1,.2-.9c.1-.2.2-.3.3-.5a.85.85,0,0,1,.5-.3,1.949,1.949,0,0,1,.8-.1,1.9,1.9,0,0,1,1.3.5,1.978,1.978,0,0,1,.5,1.4,2.168,2.168,0,0,1-.5,1.4,1.728,1.728,0,0,1-1.3.5,1.9,1.9,0,0,1-1.3-.5,2.26,2.26,0,0,1-.5-1.5Zm.7-.1a1.222,1.222,0,0,0,.3.9.967.967,0,0,0,1.4,0,1.5,1.5,0,0,0,0-1.8.967.967,0,0,0-1.4,0,1.222,1.222,0,0,0-.3.9Zm5.3.5v-.6h1.6v1.4a4.348,4.348,0,0,1-.7.4,2.92,2.92,0,0,1-.9.2,2.959,2.959,0,0,1-1-.2,1.344,1.344,0,0,1-.6-.7,2.6,2.6,0,0,1,0-2,2.336,2.336,0,0,1,.7-.7,2,2,0,0,1,.9-.2,1.493,1.493,0,0,1,1,.3,1.126,1.126,0,0,1,.5.8l-.7.1c-.1-.2-.1-.3-.3-.4a.764.764,0,0,0-.5-.2,1.136,1.136,0,0,0-.8.3,1.222,1.222,0,0,0-.3.9,1.493,1.493,0,0,0,.3,1,1.074,1.074,0,0,0,1.2.2c.2-.1.3-.1.4-.2V63Zm2.5,1.4V60.8H85v3.6Zm5,0h-.8l-.3-.8H86.8l-.3.8h-.8l1.4-3.6h.8l1.4,3.6Zm-1.4-1.5-.5-1.3-.5,1.3Zm3.7-2.2h1.3a1.483,1.483,0,0,1,.7.1,2.186,2.186,0,0,1,.5.3.864.864,0,0,1,.3.6,2.22,2.22,0,0,1,.1.9,1.949,1.949,0,0,1-.1.8.918.918,0,0,1-.4.6,2.186,2.186,0,0,1-.5.3,1.268,1.268,0,0,1-.6.1H91.5V60.7Zm.7.7v2.4h.9c.1,0,.2-.1.3-.2s.1-.2.2-.3c0-.2.1-.4.1-.7s0-.5-.1-.6c0-.1-.1-.3-.2-.3-.1-.1-.2-.1-.3-.2h-.9Zm3.1,1.2a2,2,0,0,1,.2-.9c.1-.2.2-.3.3-.5a.85.85,0,0,1,.5-.3,1.949,1.949,0,0,1,.8-.1,1.9,1.9,0,0,1,1.3.5,1.978,1.978,0,0,1,.5,1.4,2.168,2.168,0,0,1-.5,1.4,1.728,1.728,0,0,1-1.3.5,1.9,1.9,0,0,1-1.3-.5,2.26,2.26,0,0,1-.5-1.5Zm.7-.1a1.222,1.222,0,0,0,.3.9.967.967,0,0,0,1.4,0,1.5,1.5,0,0,0,0-1.8.967.967,0,0,0-1.4,0,1.222,1.222,0,0,0-.3.9Zm8.5,1.9h-.8l-.3-.8h-1.4l-.3.8H101l1.4-3.6h.8l1.4,3.6Zm-1.3-1.5-.5-1.3-.5,1.3Zm2,1.5V60.8h1.1l.6,2.5.6-2.5h1.1v3.6H108V61.6l-.7,2.8h-.7l-.7-2.8v2.8Zm7.7,0h-.8l-.3-.8h-1.4l-.3.8h-.8l1.4-3.6h.8l1.4,3.6Zm-1.3-1.5-.5-1.3-.5,1.3Zm1.7,1.5v-.7l1.9-2.3h-1.7v-.6h2.6v.6l-2,2.4h2v.6Zm3.5-1.8a2,2,0,0,1,.2-.9c.1-.2.2-.3.3-.5a.85.85,0,0,1,.5-.3,1.949,1.949,0,0,1,.8-.1,1.9,1.9,0,0,1,1.3.5,1.978,1.978,0,0,1,.5,1.4,2.168,2.168,0,0,1-.5,1.4,1.728,1.728,0,0,1-1.3.5,1.9,1.9,0,0,1-1.3-.5,2.26,2.26,0,0,1-.5-1.5Zm.7-.1a1.222,1.222,0,0,0,.3.9.967.967,0,0,0,1.4,0,1.5,1.5,0,0,0,0-1.8.967.967,0,0,0-1.4,0,1.222,1.222,0,0,0-.3.9Zm3.6,1.9V60.8h.7l1.5,2.4V60.8h.7v3.6h-.7L121.9,62v2.4Zm7.2,0h-.8l-.3-.8h-1.4l-.3.8h-.8l1.4-3.6h.8l1.4,3.6Zm-1.3-1.5-.5-1.3-.5,1.3Zm1.8.3.7-.1a.55.55,0,0,0,.3.5.764.764,0,0,0,.5.2.749.749,0,0,0,.5-.1c.1-.1.2-.2.2-.3s0-.2-.1-.2c0-.1-.1-.1-.3-.2a3.932,3.932,0,0,1-.6-.2c-.4-.1-.7-.2-.8-.4a.908.908,0,0,1-.3-.7.764.764,0,0,1,.2-.5c.1-.2.3-.3.4-.4a1.483,1.483,0,0,1,.7-.1,1.327,1.327,0,0,1,1,.3,2.01,2.01,0,0,1,.4.8H131a.52.52,0,0,0-.2-.4,1.3,1.3,0,0,0-1,0c-.1.1-.1.1-.1.2s0,.2.1.2a.956.956,0,0,0,.7.2,3.385,3.385,0,0,1,.8.3.781.781,0,0,1,.4.4,1.083,1.083,0,0,1,.1.6,1.421,1.421,0,0,1-.2.6,1,1,0,0,1-.5.4,1.949,1.949,0,0,1-.8.1,1.327,1.327,0,0,1-1-.3A1.268,1.268,0,0,1,128.9,63.2Z"/>
    <path id="Instituto_Transire_1_" class="cls-1" d="M2.3,56.5H.3V47H2.2v9.5Zm9.6,0H10L6.1,50h0v6.4H4.2V47H6.1L10,53.4h0V47h1.9v9.5ZM18.6,54a.975.975,0,0,0-.4-.9,4.779,4.779,0,0,0-1.4-.6,6.475,6.475,0,0,1-2.5-1.2,2.271,2.271,0,0,1-.9-1.8,2.166,2.166,0,0,1,1-1.9,3.9,3.9,0,0,1,2.5-.7,4.237,4.237,0,0,1,2.6.8,2.321,2.321,0,0,1,.9,2.1H18.5a1.366,1.366,0,0,0-.4-1.1,1.594,1.594,0,0,0-1.2-.4,1.8,1.8,0,0,0-1.1.3.975.975,0,0,0-.4.9.909.909,0,0,0,.4.8,11.254,11.254,0,0,0,1.5.7,5.369,5.369,0,0,1,2.4,1.2,2.241,2.241,0,0,1,.8,1.9,2.058,2.058,0,0,1-1,1.9,3.9,3.9,0,0,1-2.5.7,5.029,5.029,0,0,1-2.7-.8,2.712,2.712,0,0,1-1.1-2.3h1.9a1.364,1.364,0,0,0,.5,1.2,1.955,1.955,0,0,0,1.4.4,2.133,2.133,0,0,0,1.2-.3.975.975,0,0,0,.4-.9Zm10-5.6H25.9v8.1H24V48.4H21.3V47h7.3v1.4Zm3.1,8.1H29.8V47h1.9v9.5Zm8.4-8.1H37.4v8.1H35.5V48.4H32.8V47h7.3v1.4ZM48.7,47v6.3a3.1,3.1,0,0,1-1.1,2.5,4.1,4.1,0,0,1-2.8.9,4.277,4.277,0,0,1-2.8-.9,3.25,3.25,0,0,1-1.1-2.5V47H43v6.3a2.456,2.456,0,0,0,.5,1.5,2.21,2.21,0,0,0,2.8,0,2.07,2.07,0,0,0,.5-1.5V47Zm8.4,1.4H54.4v8.1H52.5V48.4H49.8V47h7.3v1.4Zm8.6,4.2a4.173,4.173,0,0,1-1.1,2.9,3.633,3.633,0,0,1-2.9,1.1,3.847,3.847,0,0,1-2.9-1.2,4.173,4.173,0,0,1-1.1-2.9V50.8a4.173,4.173,0,0,1,1.1-2.9,4.1,4.1,0,0,1,5.8,0,4.173,4.173,0,0,1,1.1,2.9v1.8Zm-1.9-1.7a2.61,2.61,0,0,0-.6-1.8,1.8,1.8,0,0,0-1.5-.7,1.683,1.683,0,0,0-1.5.7,2.73,2.73,0,0,0-.5,1.8v1.7a3.557,3.557,0,0,0,.5,1.9,1.8,1.8,0,0,0,1.5.7,1.579,1.579,0,0,0,1.5-.7,2.883,2.883,0,0,0,.6-1.9V50.9Zm13.4-2.5H74.5v8.1H72.6V48.4H69.9V47h7.3v1.4Zm3,4.3v3.8H78.3V47h3.3a4.209,4.209,0,0,1,2.6.7,2.583,2.583,0,0,1,.9,2.1,2.01,2.01,0,0,1-.4,1.3,3.331,3.331,0,0,1-1.1.9,1.837,1.837,0,0,1,1.2.8,3.255,3.255,0,0,1,.4,1.4v.7a2.2,2.2,0,0,0,.1.8.918.918,0,0,0,.4.6v.1h-2a.779.779,0,0,1-.3-.7c0-.3-.1-.6-.1-.9v-.7a1.384,1.384,0,0,0-1.5-1.5H80.2Zm0-1.5h1.4a2.133,2.133,0,0,0,1.2-.3,1.45,1.45,0,0,0,0-2,1.594,1.594,0,0,0-1.2-.4H80.2v2.7Zm11.6,3.3H88.7l-.6,2.1h-2L89.3,47h2l3.2,9.6h-2l-.7-2.1ZM89.2,53h2.2l-1.1-3.4h0L89.2,53Zm13.9,3.5h-1.9L97.3,50h0v6.4H95.4V47h1.9l3.9,6.4h0V47h1.9v9.5Zm6.8-2.5a.975.975,0,0,0-.4-.9,5.349,5.349,0,0,0-1.3-.6,6.475,6.475,0,0,1-2.5-1.2,2.271,2.271,0,0,1-.9-1.8,2.166,2.166,0,0,1,1-1.9,3.9,3.9,0,0,1,2.5-.7,4.237,4.237,0,0,1,2.6.8,2.321,2.321,0,0,1,.9,2.1h-1.9a1.366,1.366,0,0,0-.4-1.1,1.594,1.594,0,0,0-1.2-.4,1.8,1.8,0,0,0-1.1.3.975.975,0,0,0-.4.9.909.909,0,0,0,.4.8,11.254,11.254,0,0,0,1.5.7,5.369,5.369,0,0,1,2.4,1.2,2.241,2.241,0,0,1,.8,1.9,2.058,2.058,0,0,1-1,1.9,3.9,3.9,0,0,1-2.5.7,5.029,5.029,0,0,1-2.7-.8,2.712,2.712,0,0,1-1.1-2.3h1.9a1.364,1.364,0,0,0,.5,1.2,1.955,1.955,0,0,0,1.4.4,2.133,2.133,0,0,0,1.2-.3,1.9,1.9,0,0,0,.3-.9Zm5.4,2.5h-1.9V47h1.9v9.5Zm3.8-3.8v3.8h-1.9V47h3.3a4.209,4.209,0,0,1,2.6.7,2.583,2.583,0,0,1,.9,2.1,2.01,2.01,0,0,1-.4,1.3,3.331,3.331,0,0,1-1.1.9,1.837,1.837,0,0,1,1.2.8,3.255,3.255,0,0,1,.4,1.4v.7a2.2,2.2,0,0,0,.1.8.918.918,0,0,0,.4.6v.1h-2a.779.779,0,0,1-.3-.7c0-.3-.1-.6-.1-.9v-.7a1.384,1.384,0,0,0-1.5-1.5h-1.6Zm0-1.5h1.4a2.133,2.133,0,0,0,1.2-.3,1.45,1.45,0,0,0,0-2,1.594,1.594,0,0,0-1.2-.4h-1.4v2.7Zm12.1,1.1h-3.5V55h4.2v1.5h-6.1V47h6.1v1.5h-4.2v2.4h3.5Z"/>
    <path id="Ãcone_1_" class="cls-2" d="M67.8,4.4a44.651,44.651,0,0,0-8.2.7V.6A.645.645,0,0,0,59,0H53.9a.576.576,0,0,0-.6.6c0,.7-.1,3.3,0,4.6a1.346,1.346,0,0,1-.5,1.2L48.1,11a1.656,1.656,0,0,1-1.2.5H44a1.136,1.136,0,0,1-.8-.3L40.6,8.6a1.135,1.135,0,0,1-.3-.8V5.9a.265.265,0,0,0-.3-.3H37.5a.265.265,0,0,0-.3.3V8.4a.265.265,0,0,0,.3.3h1.9a1.136,1.136,0,0,1,.8.3l2.6,2.6a1.135,1.135,0,0,1,.3.8v2.9a1.845,1.845,0,0,1-.5,1.2l-3.4,3.4a1.656,1.656,0,0,1-1.2.5H35.3a.43.43,0,0,0-.4.4v3.4a.43.43,0,0,0,.4.4h2.8a1.222,1.222,0,0,1,.9.4l1.6,1.6a1.268,1.268,0,0,1,.4.9v3.7a.472.472,0,0,0,.5.5h4.1a.472.472,0,0,0,.5-.5V27a.472.472,0,0,0-.5-.5c-1,0-2.6-.1-3.7,0a.975.975,0,0,1-.9-.4l-1.6-1.6a1.268,1.268,0,0,1-.4-.9V21.5a1.845,1.845,0,0,1,.5-1.2l3.4-3.4a1.656,1.656,0,0,1,1.2-.5h3.3a.472.472,0,0,0,.5-.5V12.6a1.845,1.845,0,0,1,.5-1.2L53,6.8a1.656,1.656,0,0,1,1.2-.5h4.6v6.4a1,1,0,0,1-1,1H55.3V11.6a.265.265,0,0,0-.3-.3H52.8a.265.265,0,0,0-.3.3v1.7a.908.908,0,0,1-.3.7l-5.8,5.8a.908.908,0,0,1-.7.3H43.4a.43.43,0,0,0-.4.4v2.8a.43.43,0,0,0,.4.4h2.8a.43.43,0,0,0,.4-.4V21a.908.908,0,0,1,.3-.7l5.8-5.8a.908.908,0,0,1,.7-.3H55v6.2h5.3l11-10.5a.6.6,0,0,1,1,.4.758.758,0,0,1-.2.4L62,20.4H72.6L81.3,12a.6.6,0,0,1,1,.4.758.758,0,0,1-.2.4l-7.9,7.6H84.8l6.5-6.2a.6.6,0,0,1,1,.4.758.758,0,0,1-.2.4l-5.6,5.4h17.1c-7.7-9.7-20.8-16-35.8-16ZM57,32.6H52.3a.684.684,0,0,0-.7.7V38a.684.684,0,0,0,.7.7H57a.684.684,0,0,0,.7-.7V33.3a.842.842,0,0,0-.7-.7ZM36.3,28.3a.43.43,0,0,1,.4.4v2.7a.43.43,0,0,1-.4.4H33.6a.43.43,0,0,1-.4-.4V28.7a.43.43,0,0,1,.4-.4Zm-5-9.4H29.1a.265.265,0,0,0-.3.3v2.2a.265.265,0,0,0,.3.3h2.2a.265.265,0,0,0,.3-.3V19.2c.1-.2-.1-.3-.3-.3Zm23.3,2.7h5.7L71.2,32.1a.568.568,0,1,0,.8-.8L62,21.6H72.6L81.3,30a.568.568,0,1,0,.8-.8l-7.9-7.6H84.8l6.5,6.2a.568.568,0,1,0,.8-.8l-5.6-5.4h17.1C96,31.3,82.8,37.7,67.8,37.7a53.222,53.222,0,0,1-8.1-.6V31.2a.789.789,0,0,0-.8-.8H51.2a1.11,1.11,0,0,1-1.1-1.1V22.7a1.11,1.11,0,0,1,1.1-1.1ZM29.2,7h4.1a.645.645,0,0,1,.6.6v3.8a.908.908,0,0,0,.3.7L36.1,14a.908.908,0,0,0,.7.3h1.6a.265.265,0,0,1,.3.3v2.1a.265.265,0,0,1-.3.3H36.3a.265.265,0,0,1-.3-.3V15.1a.908.908,0,0,0-.3-.7l-1.9-1.9a1.08,1.08,0,0,0-.7-.3c-1,.1-3,0-3.8,0a.645.645,0,0,1-.6-.6v-4A.5.5,0,0,1,29.2,7Z"/>
  </g>
</svg>
