<svg xmlns="http://www.w3.org/2000/svg" viewBox="-4322 2778 240 160.891">
  <defs>
    <style>.a{fill:#eceff1;}.b,.c{fill:#fff;fill-rule:evenodd;}.c{opacity:0.54;}</style>
  </defs>
  <g transform="translate(-4322 2778)">
    <g transform="translate(0)">
      <path class="a"
            d="M20.833,92.578a6.371,6.371,0,0,0-1.412-1.1,12.822,12.822,0,0,0-1.989-.955,14.175,14.175,0,0,0-2.4-.663,13.327,13.327,0,0,0-2.705-.265q-3.66,0-5.351,1.26A4.071,4.071,0,0,0,5.3,94.283a3.607,3.607,0,0,0,.484,1.989A3.912,3.912,0,0,0,7.307,97.6a12.3,12.3,0,0,0,2.579.955q1.538.411,3.653.855a40.824,40.824,0,0,1,4.363,1.074,13.414,13.414,0,0,1,3.315,1.565,6.591,6.591,0,0,1,2.115,2.281,6.83,6.83,0,0,1,.723,3.315,7.035,7.035,0,0,1-.849,3.574,7.386,7.386,0,0,1-2.4,2.52,10.814,10.814,0,0,1-3.567,1.465,20.364,20.364,0,0,1-4.489.471,22.331,22.331,0,0,1-6.869-1.054A19.494,19.494,0,0,1,0,111.6l1.9-3.09A10.112,10.112,0,0,0,3.72,109.9a15.769,15.769,0,0,0,2.553,1.24,20.47,20.47,0,0,0,3.083.9,16.79,16.79,0,0,0,3.461.345,10.172,10.172,0,0,0,5.2-1.1,3.581,3.581,0,0,0,1.876-3.289,3.441,3.441,0,0,0-.6-2.055,4.973,4.973,0,0,0-1.737-1.445,14.249,14.249,0,0,0-2.845-1.074q-1.691-.464-3.852-.955a41.027,41.027,0,0,1-4.23-1.14,11.623,11.623,0,0,1-3.017-1.465,5.656,5.656,0,0,1-1.83-2.069,6.438,6.438,0,0,1-.617-2.931,7.685,7.685,0,0,1,.842-3.66A7.778,7.778,0,0,1,4.343,88.54a10.357,10.357,0,0,1,3.614-1.678,17.5,17.5,0,0,1,4.489-.544,17.432,17.432,0,0,1,5.729.889,16.616,16.616,0,0,1,4.535,2.4Z"
            transform="translate(0 -29.084)"/>
      <path class="a"
            d="M63.545,111.479a13.142,13.142,0,0,1-9.515,4.1,13.347,13.347,0,0,1-5.8-1.26,15.051,15.051,0,0,1-4.6-3.315,15.675,15.675,0,0,1-3.057-4.694,13.758,13.758,0,0,1-1.127-5.444,14.242,14.242,0,0,1,1.1-5.55,14.952,14.952,0,0,1,3.043-4.641,14.329,14.329,0,0,1,10.437-4.37A14.425,14.425,0,0,1,61.5,88.054a12.015,12.015,0,0,1,4.469,4.555l-3.037,1.949a9.124,9.124,0,0,0-3.746-3.74,11.113,11.113,0,0,0-5.238-1.22,9.6,9.6,0,0,0-4.317.955,10.47,10.47,0,0,0-3.315,2.52,11.338,11.338,0,0,0-2.1,3.64,12.213,12.213,0,0,0-.749,4.25,11.471,11.471,0,0,0,.835,4.37,11.935,11.935,0,0,0,2.288,3.62,10.609,10.609,0,0,0,3.435,2.46,10.4,10.4,0,0,0,4.316.9q5.112,0,9.21-4.555v-3.978H56.8V101.01H66.887V115.4H63.572Z"
            transform="translate(-13.292 -29.081)"/>
      <path class="a"
            d="M88.27,115.489V86.62h13.036a9.07,9.07,0,0,1,3.813.8,9.482,9.482,0,0,1,2.99,2.109,9.992,9.992,0,0,1,1.989,2.964,8.441,8.441,0,0,1,.7,3.355,9.5,9.5,0,0,1-2.533,6.425,8.911,8.911,0,0,1-6.67,2.844H92.235v10.37Zm3.978-13.619h9.1a5.125,5.125,0,0,0,2.221-.471,4.946,4.946,0,0,0,1.7-1.326,6.279,6.279,0,0,0,1.1-1.93,6.776,6.776,0,0,0,.4-2.321,6.094,6.094,0,0,0-.464-2.36,6.478,6.478,0,0,0-1.233-1.91,5.536,5.536,0,0,0-1.8-1.26,5.437,5.437,0,0,0-2.181-.444H92.235Z"
            transform="translate(-29.742 -29.186)"/>
      <path class="a" d="M175.23,175.489V146.62h3.978v28.869Z" transform="translate(-59.043 -49.403)"/>
      <path class="a" d="M211.861,149.876H201.073v25.614h-3.978V149.876H186.32V146.62h25.541Z"
            transform="translate(-62.779 -49.403)"/>
      <path class="a"
            d="M253.969,168.05a6.445,6.445,0,0,1-.723,3.043,7.221,7.221,0,0,1-1.989,2.36,9.283,9.283,0,0,1-2.9,1.505,11.649,11.649,0,0,1-3.547.53H230V146.62h15.516a6.631,6.631,0,0,1,2.951.663,7.294,7.294,0,0,1,2.248,1.691,7.632,7.632,0,0,1,1.432,2.354,7.386,7.386,0,0,1,.5,2.652,7.294,7.294,0,0,1-1.167,3.978,6.989,6.989,0,0,1-3.315,2.725,7.9,7.9,0,0,1,4.25,2.7A7.294,7.294,0,0,1,253.969,168.05Zm-20.038-18.261v9.641h9.946A4.814,4.814,0,0,0,247.339,158a4.946,4.946,0,0,0,1.014-1.525,4.727,4.727,0,0,0,.371-1.85,5.224,5.224,0,0,0-.351-1.91,4.967,4.967,0,0,0-.948-1.545,4.125,4.125,0,0,0-1.445-.988,4.582,4.582,0,0,0-1.83-.371Zm16.033,17.637a4.908,4.908,0,0,0-.378-1.89,5.265,5.265,0,0,0-1.008-1.6,4.735,4.735,0,0,0-1.518-1.094,4.575,4.575,0,0,0-1.943-.411H233.932v9.946h10.881a4.966,4.966,0,0,0,1.989-.4,5.716,5.716,0,0,0,1.631-1.074,4.914,4.914,0,0,0,1.1-1.571A4.509,4.509,0,0,0,249.965,167.427Z"
            transform="translate(-77.497 -49.402)"/>
      <path class="a"
            d="M279.7,146.62h3.348l12.77,28.869h-4.224l-3.7-8.461H274.764l-3.653,8.461h-4.23Zm7.294,17.564-5.616-13.334-5.8,13.334Z"
            transform="translate(-89.923 -49.403)"/>
      <path class="a"
            d="M342.253,175.489V153.164l-10.39,17.12h-2.248l-10.436-17.12v22.325H315.2V146.62h4.184L330.7,165.365,342.06,146.62H346.2v28.869Z"
            transform="translate(-106.205 -49.403)"/>
      <path class="b"
            d="M217.962,3.574a4.111,4.111,0,0,0-.351-1.585h0A3.315,3.315,0,0,0,215.158.06a2.838,2.838,0,0,0-.577-.06H188.615A3.315,3.315,0,0,0,185.3,3.315c0,3.634-.411,16.762-.192,23.34a8.043,8.043,0,0,1-2.447,6.186l-23.207,23.24a8.1,8.1,0,0,1-5.914,2.447H139.065A5.4,5.4,0,0,1,135.12,56.9L122.038,43.762a5.4,5.4,0,0,1-1.631-3.939v-9.7a1.611,1.611,0,0,0-1.591-1.611h-12.8a1.611,1.611,0,0,0-1.618,1.611V42.9a1.624,1.624,0,0,0,1.618,1.618h9.714a5.384,5.384,0,0,1,3.978,1.631L132.74,59.231a5.371,5.371,0,0,1,1.638,3.939V77.651a8.083,8.083,0,0,1-2.453,5.914L114.479,101.01a8.083,8.083,0,0,1-5.914,2.447H95.045a2.181,2.181,0,0,0-2.175,2.175v17.193a2.181,2.181,0,0,0,2.175,2.168H109.48a5.968,5.968,0,0,1,4.376,1.817l8.275,8.282a5.967,5.967,0,0,1,1.817,4.383v18.765a2.652,2.652,0,0,0,2.652,2.652h21.045a2.652,2.652,0,0,0,2.652-2.652V137.186a2.652,2.652,0,0,0-2.652-2.652c-5.245,0-12.976-.424-18.672-.179a5.967,5.967,0,0,1-4.641-1.8l-8.1-8.1a5.968,5.968,0,0,1-1.81-4.376V109.285a8.05,8.05,0,0,1,2.447-5.908l17.445-17.445a8.083,8.083,0,0,1,5.914-2.453h16.636a2.533,2.533,0,0,0,2.526-2.526V64.317a8.1,8.1,0,0,1,2.447-5.921l23.512-23.512a8.142,8.142,0,0,1,3.554-2.089h25.594a3.315,3.315,0,0,0,3.315-3.282C217.763,25.892,218.174,10.145,217.962,3.574Z"
            transform="translate(-31.292)"/>
      <path class="c"
            d="M237.618,112.11h-6.823a.975.975,0,0,0-.975.975V119.9a.975.975,0,0,0,.975.975h6.823a.975.975,0,0,0,.975-.975v-6.816a.975.975,0,0,0-.975-.975Z"
            transform="translate(-77.436 -37.775)"/>
      <path class="c"
            d="M236.669,72.09h9.508a1.359,1.359,0,0,1,1.359,1.326v8.832a2.155,2.155,0,0,0,.663,1.6l4.476,4.469a2.175,2.175,0,0,0,1.591.663h3.62a.709.709,0,0,1,.7.7v4.927a.71.71,0,0,1-.7.7h-4.926a.709.709,0,0,1-.7-.7v-3.62a2.188,2.188,0,0,0-.663-1.6l-4.376-4.376a2.188,2.188,0,0,0-1.717-.663c-2.334.139-7.035-.073-8.805-.073a1.359,1.359,0,0,1-1.326-1.326V73.443A1.326,1.326,0,0,1,236.669,72.09Z"
            transform="translate(-79.306 -24.29)"/>
      <path class="c"
            d="M178.893,55.81a1.2,1.2,0,0,0-1.193,1.2V65.4a1.207,1.207,0,0,0,1.2,1.2h8.388a1.207,1.207,0,0,0,1.22-1.2V57.01a1.207,1.207,0,0,0-1.2-1.2Z"
            transform="translate(-59.875 -18.805)"/>
      <path class="c"
            d="M172.711,8.231v11.7A1.678,1.678,0,0,1,171.04,21.6c-2.175,0-7.957.259-10.834.093a2.685,2.685,0,0,0-2.115.809l-5.384,5.384a2.652,2.652,0,0,0-.809,1.989v4.462a.869.869,0,0,1-.869.862h-6.06a.869.869,0,0,1-.869-.862v-6.1a.869.869,0,0,1,.869-.862h4.456a2.652,2.652,0,0,0,1.989-.816l5.5-5.5a2.652,2.652,0,0,0,.816-1.989L157.7,8.211A1.678,1.678,0,0,1,159.37,6.54h11.7A1.678,1.678,0,0,1,172.711,8.231Z"
            transform="translate(-48.554 -2.204)"/>
    </g>
  </g>
</svg>
